<svg width="24" height="24" viewBox="0 0 24 24" fill="none" xmlns="http://www.w3.org/2000/svg">
<path fill-rule="evenodd" clip-rule="evenodd" d="M10.4849 3.81818C6.80295 3.81818 3.81818 6.80295 3.81818 10.4849C3.81818 14.1667 6.80295 17.1515 10.4849 17.1515C12.2942 17.1515 13.9352 16.4307 15.1363 15.2606C15.1548 15.2382 15.1745 15.2165 15.1955 15.1956C15.2165 15.1746 15.2382 15.1549 15.2606 15.1364C16.4307 13.9352 17.1515 12.2942 17.1515 10.4849C17.1515 6.80295 14.1667 3.81818 10.4849 3.81818ZM17.093 15.8074C18.2669 14.3518 18.9697 12.5004 18.9697 10.4849C18.9697 5.7988 15.1709 2 10.4849 2C5.7988 2 2 5.7988 2 10.4849C2 15.1709 5.7988 18.9697 10.4849 18.9697C12.5004 18.9697 14.3518 18.2669 15.8074 17.0931L20.448 21.7337C20.803 22.0888 21.3786 22.0888 21.7337 21.7337C22.0887 21.3787 22.0887 20.8031 21.7337 20.4481L17.093 15.8074Z" fill="#DCDCDC"/>
</svg>
